<svg xmlns="http://www.w3.org/2000/svg" width="1360" height="80" fill="none"><rect width="1360" height="80" fill="#286897" rx="12"/><mask id="a" width="1360" height="80" x="0" y="0" maskUnits="userSpaceOnUse" style="mask-type:alpha"><rect width="1360" height="80" fill="#286897" rx="12"/></mask><g mask="url(#a)"><g filter="url(#b)"><path fill="#558CB4" fill-opacity=".6" fill-rule="evenodd" d="M1243.22.01a49.01 49.01 0 0 1 87.8-22.29A40.1 40.1 0 1 1 1343.27 56H1240.18v-.26a28 28 0 0 1 3.04-55.73Z" clip-rule="evenodd"/></g><g filter="url(#c)"><path fill="#558CB4" fill-opacity=".6" fill-rule="evenodd" d="M1192.22 54.01a49.01 49.01 0 0 1 87.8-22.29 40.1 40.1 0 1 1 12.25 78.28H1189.18v-.26a28 28 0 0 1 3.04-55.73Z" clip-rule="evenodd"/></g></g><defs><filter id="b" width="175.36" height="106" x="1212" y="-46" color-interpolation-filters="sRGB" filterUnits="userSpaceOnUse"><feFlood flood-opacity="0" result="BackgroundImageFix"/><feBlend in="SourceGraphic" in2="BackgroundImageFix" result="shape"/><feGaussianBlur result="effect1_foregroundBlur_568_289" stdDeviation="2"/></filter><filter id="c" width="175.36" height="106" x="1161" y="8" color-interpolation-filters="sRGB" filterUnits="userSpaceOnUse"><feFlood flood-opacity="0" result="BackgroundImageFix"/><feBlend in="SourceGraphic" in2="BackgroundImageFix" result="shape"/><feGaussianBlur result="effect1_foregroundBlur_568_289" stdDeviation="2"/></filter></defs></svg>