<svg xmlns="http://www.w3.org/2000/svg" width="1360" height="80" fill="none"><rect width="1360" height="80" fill="#286897" rx="12"/><mask id="a" width="1360" height="80" x="0" y="0" maskUnits="userSpaceOnUse" style="mask-type:alpha"><rect width="1360" height="80" fill="#286897" rx="12"/></mask><g mask="url(#a)"><path stroke="url(#b)" stroke-linecap="round" stroke-opacity=".3" stroke-width="2" d="m1219.5 59.5-10.5 16"/><path stroke="url(#c)" stroke-linecap="round" stroke-opacity=".3" stroke-width="2" d="m1247 49-10.5 16"/><path stroke="url(#d)" stroke-linecap="round" stroke-opacity=".3" stroke-width="2" d="m1266 60-10.5 16"/><path stroke="url(#e)" stroke-linecap="round" stroke-opacity=".3" stroke-width="2" d="m1294 49-10.5 16"/><path stroke="url(#f)" stroke-linecap="round" stroke-opacity=".3" stroke-width="2" d="m1318 61-10.5 16"/><path stroke="url(#g)" stroke-linecap="round" stroke-opacity=".3" stroke-width="2" d="m1346 48-10.5 16"/><path fill="#1F4F72" fill-rule="evenodd" d="M1238.22-15.99a49.01 49.01 0 0 1 87.8-22.29A40.1 40.1 0 1 1 1338.27 40H1235.18v-.26a28 28 0 0 1 3.04-55.73Z" clip-rule="evenodd"/></g><defs><linearGradient id="b" x1="1214.25" x2="1214.25" y1="59.5" y2="75.5" gradientUnits="userSpaceOnUse"><stop stop-color="#fff" stop-opacity="0"/><stop offset=".9" stop-color="#fff"/></linearGradient><linearGradient id="c" x1="1241.75" x2="1241.75" y1="49" y2="65" gradientUnits="userSpaceOnUse"><stop stop-color="#fff" stop-opacity="0"/><stop offset=".9" stop-color="#fff"/></linearGradient><linearGradient id="d" x1="1260.75" x2="1260.75" y1="60" y2="76" gradientUnits="userSpaceOnUse"><stop stop-color="#fff" stop-opacity="0"/><stop offset=".9" stop-color="#fff"/></linearGradient><linearGradient id="e" x1="1288.75" x2="1288.75" y1="49" y2="65" gradientUnits="userSpaceOnUse"><stop stop-color="#fff" stop-opacity="0"/><stop offset=".9" stop-color="#fff"/></linearGradient><linearGradient id="f" x1="1312.75" x2="1312.75" y1="61" y2="77" gradientUnits="userSpaceOnUse"><stop stop-color="#fff" stop-opacity="0"/><stop offset=".9" stop-color="#fff"/></linearGradient><linearGradient id="g" x1="1340.75" x2="1340.75" y1="48" y2="64" gradientUnits="userSpaceOnUse"><stop stop-color="#fff" stop-opacity="0"/><stop offset=".9" stop-color="#fff"/></linearGradient></defs></svg>