<svg xmlns="http://www.w3.org/2000/svg" width="1360" height="80" fill="none"><rect width="1360" height="80" fill="#286897" rx="12"/><mask id="a" width="1360" height="80" x="0" y="0" maskUnits="userSpaceOnUse" style="mask-type:alpha"><rect width="1360" height="80" fill="#286897" rx="12"/></mask><g fill-rule="evenodd" clip-rule="evenodd" mask="url(#a)"><path fill="url(#b)" d="M1250.25 40a1 1 0 0 0-2 0v3.84l-2.71-2.72a1 1 0 1 0-1.42 1.41l2.72 2.72H1243a1 1 0 0 0 0 2h3.84l-2.72 2.71a1 1 0 1 0 1.42 1.42l2.71-2.72v3.84a1 1 0 0 0 2 0v-3.84l2.71 2.72a1 1 0 1 0 1.42-1.41l-2.72-2.72h3.84a1 1 0 0 0 0-2h-3.84l2.72-2.71a1 1 0 1 0-1.42-1.42l-2.71 2.72V40Z"/><path fill="url(#c)" d="M1234.25 64a1 1 0 0 0-2 0v3.84l-2.71-2.72a1 1 0 1 0-1.42 1.41l2.72 2.72H1227a1 1 0 0 0 0 2h3.84l-2.72 2.71a1 1 0 1 0 1.42 1.42l2.71-2.72v3.84a1 1 0 0 0 2 0v-3.84l2.71 2.72a1 1 0 1 0 1.42-1.41l-2.72-2.72h3.84a1 1 0 0 0 0-2h-3.84l2.72-2.71a1 1 0 1 0-1.42-1.42l-2.71 2.72V64Z"/><path fill="url(#d)" d="M1264.25 67a1 1 0 0 0-2 0v3.84l-2.71-2.72a1 1 0 1 0-1.42 1.41l2.72 2.72H1257a1 1 0 0 0 0 2h3.84l-2.72 2.71a1 1 0 1 0 1.42 1.42l2.71-2.72v3.84a1 1 0 0 0 2 0v-3.84l2.71 2.72a1 1 0 1 0 1.42-1.41l-2.72-2.72h3.84a1 1 0 0 0 0-2h-3.84l2.72-2.71a1 1 0 1 0-1.42-1.42l-2.71 2.72V67Z"/><path fill="url(#e)" d="M1282.25 49a1 1 0 0 0-2 0v3.84l-2.71-2.72a1 1 0 1 0-1.42 1.41l2.72 2.72H1275a1 1 0 0 0 0 2h3.84l-2.72 2.71a1 1 0 1 0 1.42 1.42l2.71-2.72v3.84a1 1 0 0 0 2 0v-3.84l2.71 2.72a1 1 0 1 0 1.42-1.41l-2.72-2.72h3.84a1 1 0 0 0 0-2h-3.84l2.72-2.71a1 1 0 1 0-1.42-1.42l-2.71 2.72V49Z"/><path fill="url(#f)" d="M1316.25 40a1 1 0 0 0-2 0v3.84l-2.71-2.72a1 1 0 1 0-1.42 1.41l2.72 2.72H1309a1 1 0 0 0 0 2h3.84l-2.72 2.71a1 1 0 1 0 1.42 1.42l2.71-2.72v3.84a1 1 0 0 0 2 0v-3.84l2.71 2.72a1 1 0 1 0 1.42-1.41l-2.72-2.72h3.84a1 1 0 0 0 0-2h-3.84l2.72-2.71a1 1 0 1 0-1.42-1.42l-2.71 2.72V40Z"/><path fill="url(#g)" d="M1311.25 64a1 1 0 0 0-2 0v3.84l-2.71-2.72a1 1 0 1 0-1.42 1.41l2.72 2.72H1304a1 1 0 0 0 0 2h3.84l-2.72 2.71a1 1 0 1 0 1.42 1.42l2.71-2.72v3.84a1 1 0 0 0 2 0v-3.84l2.71 2.72a1 1 0 1 0 1.42-1.41l-2.72-2.72h3.84a1 1 0 0 0 0-2h-3.84l2.72-2.71a1 1 0 1 0-1.42-1.42l-2.71 2.72V64Z"/><path fill="url(#h)" d="M1343.25 52a1 1 0 0 0-2 0v3.84l-2.71-2.72a1 1 0 1 0-1.42 1.41l2.72 2.72H1336a1 1 0 0 0 0 2h3.84l-2.72 2.71a1 1 0 1 0 1.42 1.42l2.71-2.72v3.84a1 1 0 0 0 2 0v-3.84l2.71 2.72a1 1 0 1 0 1.42-1.41l-2.72-2.72h3.84a1 1 0 0 0 0-2h-3.84l2.72-2.71a1 1 0 1 0-1.42-1.42l-2.71 2.72V52Z"/><path fill="#1F4F72" d="M1238.22-15.99a49.01 49.01 0 0 1 87.8-22.29A40.1 40.1 0 1 1 1338.27 40H1235.18v-.26a28 28 0 0 1 3.04-55.73Z"/></g><defs><linearGradient id="b" x1="1249.25" x2="1249.25" y1="34" y2="53.5" gradientUnits="userSpaceOnUse"><stop stop-color="#fff" stop-opacity="0"/><stop offset="1" stop-color="#fff"/></linearGradient><linearGradient id="c" x1="1233.25" x2="1233.25" y1="58" y2="77.5" gradientUnits="userSpaceOnUse"><stop stop-color="#fff" stop-opacity="0"/><stop offset="1" stop-color="#fff"/></linearGradient><linearGradient id="d" x1="1263.25" x2="1263.25" y1="61" y2="80.5" gradientUnits="userSpaceOnUse"><stop stop-color="#fff" stop-opacity="0"/><stop offset="1" stop-color="#fff"/></linearGradient><linearGradient id="e" x1="1281.25" x2="1281.25" y1="43" y2="62.5" gradientUnits="userSpaceOnUse"><stop stop-color="#fff" stop-opacity="0"/><stop offset="1" stop-color="#fff"/></linearGradient><linearGradient id="f" x1="1315.25" x2="1315.25" y1="34" y2="53.5" gradientUnits="userSpaceOnUse"><stop stop-color="#fff" stop-opacity="0"/><stop offset="1" stop-color="#fff"/></linearGradient><linearGradient id="g" x1="1310.25" x2="1310.25" y1="58" y2="77.5" gradientUnits="userSpaceOnUse"><stop stop-color="#fff" stop-opacity="0"/><stop offset="1" stop-color="#fff"/></linearGradient><linearGradient id="h" x1="1342.25" x2="1342.25" y1="46" y2="65.5" gradientUnits="userSpaceOnUse"><stop stop-color="#fff" stop-opacity="0"/><stop offset="1" stop-color="#fff"/></linearGradient></defs></svg>